<svg xmlns="http://www.w3.org/2000/svg" version="1.1" xmlns:xlink="http://www.w3.org/1999/xlink" xmlns:svgjs="http://svgjs.com/svgjs" width="1440" height="560" preserveAspectRatio="none" viewBox="0 0 1440 560"><g mask="url(&quot;#SvgjsMask1593&quot;)" fill="none"><rect width="1440" height="560" x="0" y="0" fill="url(#SvgjsLinearGradient1594)"></rect><path d="M0 0L565.53 0L0 196.7z" fill="rgba(255, 255, 255, .1)"></path><path d="M0 196.7L565.53 0L825.3499999999999 0L0 379.57z" fill="rgba(255, 255, 255, .075)"></path><path d="M0 379.57L825.3499999999999 0L964.0999999999999 0L0 391.99z" fill="rgba(255, 255, 255, .05)"></path><path d="M0 391.99L964.0999999999999 0L1276.08 0L0 406.44z" fill="rgba(255, 255, 255, .025)"></path><path d="M1440 560L1141.62 560L1440 512.14z" fill="rgba(0, 0, 0, .1)"></path><path d="M1440 512.14L1141.62 560L770.4599999999998 560L1440 274.75z" fill="rgba(0, 0, 0, .075)"></path><path d="M1440 274.75L770.46 560L643.83 560L1440 231.92000000000002z" fill="rgba(0, 0, 0, .05)"></path><path d="M1440 231.92000000000002L643.83 560L226.13000000000005 560L1440 70.69000000000003z" fill="rgba(0, 0, 0, .025)"></path></g><defs><mask id="SvgjsMask1593"><rect width="1440" height="560" fill="#ffffff"></rect></mask><linearGradient x1="50%" y1="100%" x2="50%" y2="0%" gradientUnits="userSpaceOnUse" id="SvgjsLinearGradient1594"><stop stop-color="rgba(14, 42, 71, 1)" offset="0.16"></stop><stop stop-color="rgba(0, 69, 158, 1)" offset="0.58"></stop><stop stop-color="rgba(0, 69, 158, 1)" offset="0.81"></stop></linearGradient></defs></svg>