<svg xmlns="http://www.w3.org/2000/svg" width="16" height="16" viewBox="0 0 4.233 4.233" id="chemical"><g transform="translate(73.405 -1.965)"><g><g><g><g><g><g><g><g transform="translate(.273)"><g><g><g><g><g stroke-width=".374" transform="matrix(.5 .5 -.5 .5 -33.877 37.684)"><g><g transform="rotate(45 -71.288 4.081)"><g><path fill="none" stroke="#000" stroke-linecap="round" stroke-linejoin="round" stroke-width="1" d="m 5.96875,1.502816 v 7.0635902 l -4.0625,3.8769528 c -0.7450659,0.745067 -0.4296702,2.054688 0.6015625,2.054688 H 8 13.492188 c 1.031231,0 1.346628,-1.309621 0.601562,-2.054688 L 9.96875,8.5078125 V 1.502816 Z" paint-order="markers fill stroke" transform="rotate(-90 -33.603 40.679) scale(.37418)"></path><path fill="none" stroke="#000" stroke-linecap="round" stroke-linejoin="round" d="M-73.719705 4.8423544V5.1616305M-73.719705 3.0263682V3.3456443M-72.867166 3.8133662V3.4274957M-71.820638 3.8133662V3.4274957M-70.341468 5.485472c.666316-1.4031572-.336554-1.6526093 0-2.9086455" paint-order="markers fill stroke"></path></g></g></g></g></g></g></g></g></g></g></g></g></g></g></g></g></g></svg>