<svg xmlns="http://www.w3.org/2000/svg" version="1.1" xmlns:xlink="http://www.w3.org/1999/xlink" xmlns:svgjs="http://svgjs.com/svgjs" width="1440" height="560" preserveAspectRatio="none" viewBox="0 0 1440 560"><g mask="url(&quot;#SvgjsMask1000&quot;)" fill="none"><rect width="1440" height="560" x="0" y="0" fill="#1e3266"></rect><path d="M1512 560L0 560 L0 354.5Q66.47 300.97, 120 367.44Q124.16 299.6, 192 303.75Q216.41 256.16, 264 280.57Q320.15 264.72, 336 320.86Q398.3 311.16, 408 373.46Q446.98 292.44, 528 331.41Q578.96 262.38, 648 313.34Q726.14 271.48, 768 349.62Q817.21 326.83, 840 376.04Q876.65 292.7, 960 329.35Q985.5 282.86, 1032 308.36Q1125.97 282.33, 1152 376.29Q1185.79 290.08, 1272 323.86Q1322.49 254.35, 1392 304.83Q1480.13 272.96, 1512 361.09z" fill="#182f5d"></path><path d="M1512 560L0 560 L0 427.02Q31.27 386.29, 72 417.56Q108.41 333.97, 192 370.38Q268.26 326.64, 312 402.9Q324.26 343.16, 384 355.43Q426.04 325.47, 456 367.5Q499.27 338.77, 528 382.05Q581.49 363.54, 600 417.03Q606.94 351.96, 672 358.9Q713.49 328.39, 744 369.88Q828.51 334.39, 864 418.9Q915.71 350.61, 984 402.32Q1002.5 348.82, 1056 367.32Q1126.33 317.64, 1176 387.97Q1195.73 335.7, 1248 355.43Q1289.11 324.53, 1320 365.64Q1380.86 354.5, 1392 415.35Q1458.98 362.33, 1512 429.31z" fill="#25467d"></path><path d="M1512 560L0 560 L0 471.4Q81.76 433.16, 120 514.92Q144.01 418.93, 240 442.95Q281.05 412, 312 453.05Q358.26 379.31, 432 425.58Q500.64 374.22, 552 442.85Q600.75 419.61, 624 468.36Q660.79 385.15, 744 421.95Q793.62 399.57, 816 449.19Q888.92 402.12, 936 475.04Q977.38 396.42, 1056 437.79Q1084.89 394.68, 1128 423.57Q1218.92 394.49, 1248 485.41Q1297.11 462.51, 1320 511.62Q1320.67 440.3, 1392 440.97Q1445.43 374.4, 1512 427.84z" fill="#356cb1"></path><path d="M1560 560L0 560 L0 552.6Q63.24 495.84, 120 559.07Q164.78 531.86, 192 576.64Q192.76 505.4, 264 506.16Q293.45 463.61, 336 493.06Q427.24 464.3, 456 555.55Q500.79 528.34, 528 573.12Q533.18 506.3, 600 511.47Q630.89 470.36, 672 501.25Q752.84 462.09, 792 542.93Q847.43 526.36, 864 581.78Q882.64 480.42, 984 499.06Q1053.12 448.18, 1104 517.3Q1173.14 514.44, 1176 583.59Q1189.03 524.62, 1248 537.65Q1262.99 480.64, 1320 495.63Q1386.36 441.99, 1440 508.35Q1513.14 461.49, 1560 534.63z" fill="white"></path></g><defs><mask id="SvgjsMask1000"><rect width="1440" height="560" fill="#ffffff"></rect></mask></defs></svg>