<svg id="visual" viewBox="0 0 900 600" width="900" height="600" xmlns="http://www.w3.org/2000/svg" xmlns:xlink="http://www.w3.org/1999/xlink" version="1.1"><rect x="0" y="0" width="900" height="600" fill="#001220"></rect><path d="M0 366L21.5 373.7C43 381.3 86 396.7 128.8 386.3C171.7 376 214.3 340 257.2 323.3C300 306.7 343 309.3 385.8 331.7C428.7 354 471.3 396 514.2 411.7C557 427.3 600 416.7 642.8 415.7C685.7 414.7 728.3 423.3 771.2 415.7C814 408 857 384 878.5 372L900 360L900 601L878.5 601C857 601 814 601 771.2 601C728.3 601 685.7 601 642.8 601C600 601 557 601 514.2 601C471.3 601 428.7 601 385.8 601C343 601 300 601 257.2 601C214.3 601 171.7 601 128.8 601C86 601 43 601 21.5 601L0 601Z" fill="#4facf7"></path><path d="M0 440L21.5 441.3C43 442.7 86 445.3 128.8 436.2C171.7 427 214.3 406 257.2 398C300 390 343 395 385.8 387.7C428.7 380.3 471.3 360.7 514.2 372C557 383.3 600 425.7 642.8 445.2C685.7 464.7 728.3 461.3 771.2 443.5C814 425.7 857 393.3 878.5 377.2L900 361L900 601L878.5 601C857 601 814 601 771.2 601C728.3 601 685.7 601 642.8 601C600 601 557 601 514.2 601C471.3 601 428.7 601 385.8 601C343 601 300 601 257.2 601C214.3 601 171.7 601 128.8 601C86 601 43 601 21.5 601L0 601Z" fill="#33a0fb"></path><path d="M0 464L21.5 462.8C43 461.7 86 459.3 128.8 446.3C171.7 433.3 214.3 409.7 257.2 406C300 402.3 343 418.7 385.8 429.8C428.7 441 471.3 447 514.2 450.2C557 453.3 600 453.7 642.8 446.5C685.7 439.3 728.3 424.7 771.2 429.5C814 434.3 857 458.7 878.5 470.8L900 483L900 601L878.5 601C857 601 814 601 771.2 601C728.3 601 685.7 601 642.8 601C600 601 557 601 514.2 601C471.3 601 428.7 601 385.8 601C343 601 300 601 257.2 601C214.3 601 171.7 601 128.8 601C86 601 43 601 21.5 601L0 601Z" fill="#1393fe"></path><path d="M0 480L21.5 476.8C43 473.7 86 467.3 128.8 466.3C171.7 465.3 214.3 469.7 257.2 467.2C300 464.7 343 455.3 385.8 460.8C428.7 466.3 471.3 486.7 514.2 485.7C557 484.7 600 462.3 642.8 460.7C685.7 459 728.3 478 771.2 485.8C814 493.7 857 490.3 878.5 488.7L900 487L900 601L878.5 601C857 601 814 601 771.2 601C728.3 601 685.7 601 642.8 601C600 601 557 601 514.2 601C471.3 601 428.7 601 385.8 601C343 601 300 601 257.2 601C214.3 601 171.7 601 128.8 601C86 601 43 601 21.5 601L0 601Z" fill="#0085ff"></path><path d="M0 531L21.5 532.7C43 534.3 86 537.7 128.8 533C171.7 528.3 214.3 515.7 257.2 512.7C300 509.7 343 516.3 385.8 516.7C428.7 517 471.3 511 514.2 502.5C557 494 600 483 642.8 481C685.7 479 728.3 486 771.2 494.2C814 502.3 857 511.7 878.5 516.3L900 521L900 601L878.5 601C857 601 814 601 771.2 601C728.3 601 685.7 601 642.8 601C600 601 557 601 514.2 601C471.3 601 428.7 601 385.8 601C343 601 300 601 257.2 601C214.3 601 171.7 601 128.8 601C86 601 43 601 21.5 601L0 601Z" fill="#0076ff"></path><path d="M0 573L21.5 566.2C43 559.3 86 545.7 128.8 542.5C171.7 539.3 214.3 546.7 257.2 553.3C300 560 343 566 385.8 565.5C428.7 565 471.3 558 514.2 559C557 560 600 569 642.8 571.5C685.7 574 728.3 570 771.2 568.7C814 567.3 857 568.7 878.5 569.3L900 570L900 601L878.5 601C857 601 814 601 771.2 601C728.3 601 685.7 601 642.8 601C600 601 557 601 514.2 601C471.3 601 428.7 601 385.8 601C343 601 300 601 257.2 601C214.3 601 171.7 601 128.8 601C86 601 43 601 21.5 601L0 601Z" fill="#0066ff"></path></svg>